{"title":"The.Divide.2011.DVDRip.XviD.AC3-KoDeKinG","uid":7141109,"size":3079782971,"categoryP":"video","categoryS":"movies","magnet":"?xt=urn:btih:f3f2458445a67d4026257f1a1c4c82fb30f127c6&amp;dn=The.Divide.2011.DVDRip.XviD.AC3-KoDeKinG&amp;tr=udp%3A%2F%2Ftracker.openbittorrent.com%3A80&amp;tr=udp%3A%2F%2Fopen.demonii.com%3A1337&amp;tr=udp%3A%2F%2Ftracker.coppersurfer.tk%3A6969&amp;tr=udp%3A%2F%2Fexodus.desync.com%3A6969","seeders":0,"leechers":0,"uploader":"TvTeam","files":5,"time":1333008387,"description":". \n &lt;a href=&quot;\nhttp://www.torrenting.com&quot; rel=&quot;nofollow&quot; target=&quot;_NEW&quot;&gt;\nhttp://www.torrenting.com&lt;/a&gt;          :     Once &amp; For all ;)\n\n\n               www . Torrenting . Com \n\n(((((((((((((= Enjoy No RAR releases =))))))))))))))))))))\n\n\n...................................NFO:....................................\n\n.[img]http://i.imgbox.com/aacsvuki.jpg\n[/img]\n\n\n[color=green][size=3]General Info[/size][/color]\nENCODER     : Kobe\nSource Video: DVDR-MPTDVD\nSource Audio: DVDR-MPTDVD\nChannel     : 6 channels \nIMDB        : http://www.imdb.com/title/tt1535616/\nsubs        : None  \n\nVideo\nID                                       : 0\nFormat                                   : MPEG-4 Visual\nFormat profile                           : Advanced Simple@L5\nFormat settings, BVOP                    : 2\nFormat settings, QPel                    : No\nFormat settings, GMC                     : No warppoints\nFormat settings, Matrix                  : Default (H.263)\nMuxing mode                              : Packed bitstream\nCodec ID                                 : XVID\nCodec ID/Hint                            : XviD\nDuration                                 : 2h 2mn\nBit rate                                 : 2 865 Kbps\nWidth                                    : 720 pixels\nHeight                                   : 304 pixels\nDisplay aspect ratio                     : 2.35:1\nFrame rate                               : 23.976 fps\nColor space                              : YUV\nChroma subsampling                       : 4:2:0\nBit depth                                : 8 bits\nScan type                                : Progressive\nCompression mode                         : Lossy\nBits/(Pixel*Frame)                       : 0.546\nStream size                              : 2.45 GiB (86%)\nWriting library                          : XviD 64\n\n\nAudio\nID                                       : 1\nFormat                                   : AC-3\nFormat/Info                              : Audio Coding 3\nMode extension                           : CM (complete main)\nCodec ID                                 : 2000\nDuration                                 : 2h 2mn\nBit rate mode                            : Constant\nBit rate                                 : 448 Kbps\nChannel(s)                               : 6 channels\nChannel positions                        : Front: L C R, Side: L R, LFE\nSampling rate                            : 48.0 KHz\nBit depth                                : 16 bits\nCompression mode                         : Lossy\nStream size                              : 392 MiB (13%)\nAlignment                                : Split accross interleaves\nInterleave, duration                     : 42 ms (1.00 video frame)\nInterleave, preload duration             : 500 ms\n\n\n\n\nNOTE: \nDVDR was really nice, just did a straight rip off of it\nDue to the movie being really long i decided to go with \na big bitrate to keep the pixelation off. \n\n\n\n\n \n\n[color=Green][size=3]Greetz[/size][/color]\nunevano,Mr.hive :rock: R3dRuM,rfcgazza,Killerhz,cooperman,ANALOG,26K,Inspiral,HOPE,Toffee :rock:, KoDeKinG :P \n\n[img]http://i.imgbox.com/aabQaVPr.png[/img]\n[img]http://i.imgbox.com/aat2GXAn.png[/img]\n[img]http://i.imgbox.com/aauBhePH.pngp[/img]\n\n\n\n\n[img]http://i.imgbox.com/aacw6ohs.jpg[/img]","torrent":{"xt":"urn:btih:f3f2458445a67d4026257f1a1c4c82fb30f127c6","amp;dn":"The.Divide.2011.DVDRip.XviD.AC3-KoDeKinG","amp;tr":["udp%3A%2F%2Ftracker.openbittorrent.com%3A80","udp%3A%2F%2Fopen.demonii.com%3A1337","udp%3A%2F%2Ftracker.coppersurfer.tk%3A6969","udp%3A%2F%2Fexodus.desync.com%3A6969"],"infoHash":"f3f2458445a67d4026257f1a1c4c82fb30f127c6","infoHashBuffer":{"type":"Buffer","data":[243,242,69,132,69,166,125,64,38,37,127,26,28,76,130,251,48,241,39,198]},"announce":[],"urlList":[]}}